HIERARCHY
ROOT Hips
{
  OFFSET 5.84602e-005 68.8428 3.50346
  CHANNELS 6 Xposition Yposition Zposition Zrotation Xrotation Yrotation
  JOINT Spine
  {
    OFFSET 0 8.597 -4.6522
    CHANNELS 3 Zrotation Xrotation Yrotation
    JOINT Spine1
    {
      OFFSET 0 7.8454 0.4098
      CHANNELS 3 Zrotation Xrotation Yrotation
      JOINT Spine2
      {
        OFFSET 0 9.7078 -2.1609
        CHANNELS 3 Zrotation Xrotation Yrotation
        JOINT Neck
        {
          OFFSET 0 21.8761 -0.4549
          CHANNELS 3 Zrotation Xrotation Yrotation
          JOINT Head
          {
            OFFSET 0 12.3537 3.3602
            CHANNELS 3 Zrotation Xrotation Yrotation
            End Site
            {
              OFFSET 0.0001 18.9506 0.5657
            }
          }
        }
        JOINT LeftShoulder
        {
          OFFSET 2.2086 21.1115 7.2329
          CHANNELS 3 Zrotation Xrotation Yrotation
          JOINT LeftArm
          {
            OFFSET 13.1193 3.0282 -4.8998
            CHANNELS 3 Zrotation Xrotation Yrotation
            JOINT LeftForeArm
            {
              OFFSET 27.4081 -0.0973053 -0.2375
              CHANNELS 3 Zrotation Xrotation Yrotation
              JOINT LeftHand
              {
                OFFSET 22.8641 0.0662994 -0.1369
                CHANNELS 3 Zrotation Xrotation Yrotation
                JOINT LeftHandIndex1
                {
                  OFFSET 8.8614 0.775009 2.4612
                  CHANNELS 3 Zrotation Xrotation Yrotation
                  JOINT LeftHandIndex2
                  {
                    OFFSET 3.3146 -0.808304 0.5841
                    CHANNELS 3 Zrotation Xrotation Yrotation
                    JOINT LeftHandIndex3
                    {
                      OFFSET 2.2628 -0.552002 0.3989
                      CHANNELS 3 Zrotation Xrotation Yrotation
                      End Site
                      {
                        OFFSET 1.6102 -0.4807 0.2612
                      }
                    }
                  }
                }
                JOINT LeftHandMiddle1
                {
                  OFFSET 8.9937 0.895004 0.2143
                  CHANNELS 3 Zrotation Xrotation Yrotation
                  JOINT LeftHandMiddle2
                  {
                    OFFSET 4.0984 0.0113983 -0.0242
                    CHANNELS 3 Zrotation Xrotation Yrotation
                    JOINT LeftHandMiddle3
                    {
                      OFFSET 2.2716 0.00689697 -0.0138001
                      CHANNELS 3 Zrotation Xrotation Yrotation
                      End Site
                      {
                        OFFSET 2.0404 -0.1441 0.0027
                      }
                    }
                  }
                }
                JOINT LeftHandRing1
                {
                  OFFSET 8.5234 0.597198 -2.0164
                  CHANNELS 3 Zrotation Xrotation Yrotation
                  JOINT LeftHandRing2
                  {
                    OFFSET 3.7188 -0.188293 -0.2328
                    CHANNELS 3 Zrotation Xrotation Yrotation
                    JOINT LeftHandRing3
                    {
                      OFFSET 2.1191 -0.106598 -0.1332
                      CHANNELS 3 Zrotation Xrotation Yrotation
                      End Site
                      {
                        OFFSET 1.8737 -0.2304 -0.0886
                      }
                    }
                  }
                }
                JOINT LeftHandPinky1
                {
                  OFFSET 7.9094 -0.601089 -3.4825
                  CHANNELS 3 Zrotation Xrotation Yrotation
                  JOINT LeftHandPinky2
                  {
                    OFFSET 2.2874 -0.477005 -0.6314
                    CHANNELS 3 Zrotation Xrotation Yrotation
                    JOINT LeftHandPinky3
                    {
                      OFFSET 1.6774 -0.349396 -0.4633
                      CHANNELS 3 Zrotation Xrotation Yrotation
                      End Site
                      {
                        OFFSET 1.4888 -0.4091 -0.3416
                      }
                    }
                  }
                }
                JOINT LeftHandThumb1
                {
                  OFFSET 1.833 -1.3875 1.3896
                  CHANNELS 3 Zrotation Xrotation Yrotation
                  JOINT LeftHandThumb2
                  {
                    OFFSET 3.4129 -1.121 2.5732
                    CHANNELS 3 Zrotation Xrotation Yrotation
                    JOINT LeftHandThumb3
                    {
                      OFFSET 2.2474 -0.804199 1.6192
                      CHANNELS 3 Zrotation Xrotation Yrotation
                      End Site
                      {
                        OFFSET 1.6527 -0.5689 1.1317
                      }
                    }
                  }
                }
              }
            }
          }
        }
        JOINT RightShoulder
        {
          OFFSET -2.2086 21.1115 7.2329
          CHANNELS 3 Zrotation Xrotation Yrotation
          JOINT RightArm
          {
            OFFSET -13.1216 3.0287 -4.9007
            CHANNELS 3 Zrotation Xrotation Yrotation
            JOINT RightForeArm
            {
              OFFSET -27.4081 -0.0973053 -0.2375
              CHANNELS 3 Zrotation Xrotation Yrotation
              JOINT RightHand
              {
                OFFSET -22.8641 0.0664063 -0.1369
                CHANNELS 3 Zrotation Xrotation Yrotation
                JOINT RightHandIndex1
                {
                  OFFSET -8.8614 0.774994 2.4612
                  CHANNELS 3 Zrotation Xrotation Yrotation
                  JOINT RightHandIndex2
                  {
                    OFFSET -3.3146 -0.808304 0.5841
                    CHANNELS 3 Zrotation Xrotation Yrotation
                    JOINT RightHandIndex3
                    {
                      OFFSET -2.2628 -0.552002 0.3989
                      CHANNELS 3 Zrotation Xrotation Yrotation
                      End Site
                      {
                        OFFSET -1.6102 -0.4807 0.2612
                      }
                    }
                  }
                }
                JOINT RightHandMiddle1
                {
                  OFFSET -8.9937 0.894989 0.2143
                  CHANNELS 3 Zrotation Xrotation Yrotation
                  JOINT RightHandMiddle2
                  {
                    OFFSET -4.0984 0.0113983 -0.0242
                    CHANNELS 3 Zrotation Xrotation Yrotation
                    JOINT RightHandMiddle3
                    {
                      OFFSET -2.2716 0.00691223 -0.0138001
                      CHANNELS 3 Zrotation Xrotation Yrotation
                      End Site
                      {
                        OFFSET -2.0404 -0.1441 0.0027
                      }
                    }
                  }
                }
                JOINT RightHandRing1
                {
                  OFFSET -8.5234 0.597198 -2.0164
                  CHANNELS 3 Zrotation Xrotation Yrotation
                  JOINT RightHandRing2
                  {
                    OFFSET -3.7188 -0.188309 -0.2328
                    CHANNELS 3 Zrotation Xrotation Yrotation
                    JOINT RightHandRing3
                    {
                      OFFSET -2.1191 -0.106598 -0.1332
                      CHANNELS 3 Zrotation Xrotation Yrotation
                      End Site
                      {
                        OFFSET -1.8737 -0.2304 -0.0886
                      }
                    }
                  }
                }
                JOINT RightHandPinky1
                {
                  OFFSET -7.9094 -0.601105 -3.4825
                  CHANNELS 3 Zrotation Xrotation Yrotation
                  JOINT RightHandPinky2
                  {
                    OFFSET -2.2874 -0.477005 -0.6314
                    CHANNELS 3 Zrotation Xrotation Yrotation
                    JOINT RightHandPinky3
                    {
                      OFFSET -1.6774 -0.349396 -0.4633
                      CHANNELS 3 Zrotation Xrotation Yrotation
                      End Site
                      {
                        OFFSET -1.4888 -0.4091 -0.3416
                      }
                    }
                  }
                }
                JOINT RightHandThumb1
                {
                  OFFSET -1.833 -1.38751 1.3896
                  CHANNELS 3 Zrotation Xrotation Yrotation
                  JOINT RightHandThumb2
                  {
                    OFFSET -3.41299 -1.12099 2.5732
                    CHANNELS 3 Zrotation Xrotation Yrotation
                    JOINT RightHandThumb3
                    {
                      OFFSET -2.24741 -0.804108 1.6192
                      CHANNELS 3 Zrotation Xrotation Yrotation
                      End Site
                      {
                        OFFSET -1.6527 -0.5689 1.1317
                      }
                    }
                  }
                }
              }
            }
          }
        }
      }
    }
  }
  JOINT RightUpLeg
  {
    OFFSET -9.1966 3.8861 -0.7581
    CHANNELS 3 Zrotation Xrotation Yrotation
    JOINT RightLeg
    {
      OFFSET -0.7359 -41.0265 0
      CHANNELS 3 Zrotation Xrotation Yrotation
      JOINT RightFoot
      {
        OFFSET 0 -40.2855 0
        CHANNELS 3 Zrotation Xrotation Yrotation
        JOINT RightToeBase
        {
          OFFSET 0 -5.6122 11.7359
          CHANNELS 3 Zrotation Xrotation Yrotation
          End Site
          {
            OFFSET 0 0 7.8731
          }
        }
      }
    }
  }
  JOINT LeftUpLeg
  {
    OFFSET 9.1965 3.8864 -0.7581
    CHANNELS 3 Zrotation Xrotation Yrotation
    JOINT LeftLeg
    {
      OFFSET 0.7359 -41.0268 0
      CHANNELS 3 Zrotation Xrotation Yrotation
      JOINT LeftFoot
      {
        OFFSET 0 -40.2855 0
        CHANNELS 3 Zrotation Xrotation Yrotation
        JOINT LeftToeBase
        {
          OFFSET 0 -5.6122 11.7359
          CHANNELS 3 Zrotation Xrotation Yrotation
          End Site
          {
            OFFSET 0 0 7.8731
          }
        }
      }
    }
  }
}
MOTION
Frames:	5
Frame Time:	0.0333333
-35.7748 31.6487 7.19579 -7.01671e-015 7.01671e-015 180 0.156432 0.575969 -0.571631 0.318628 1.15035 -1.14492 0.318628 1.15035 -1.14492 11.0068 35.0038 -6.3671 -2.17996e-006 -0.790901 1.04179e-007 -20.9713 -13.0432 -0.0386407 -47.6729 3.10363 -68.554 -50.241 41.0859 -14.8261 -31.691 4.51665 -8.69956 -3.77691e-015 -9.54166e-015 6.95746e-016 3.9907e-007 -1.66769e-007 7.29186e-007 -0 0 3.57812e-015 -3.77691e-015 -9.54166e-015 6.95746e-016 -0.014586 -8.77651e-005 1.20768e-006 -5.96354e-016 1.27222e-014 3.67752e-015 -3.77691e-015 -9.54166e-015 6.95746e-016 -0.0187699 -0.0011837 5.72612e-005 2.18663e-015 -3.18055e-015 4.57205e-015 -3.77691e-015 -9.54166e-015 6.95746e-016 -0.0122779 -0.00324869 0.000676001 -2.54514e-007 6.21482e-007 1.08687e-007 -3.77691e-015 -9.54166e-015 6.95746e-016 3.9907e-007 -1.66769e-007 7.29186e-007 -0 0 3.57812e-015 -11.7186 -13.5507 -12.3859 51.2319 4.59644 83.3666 60.3573 4.7095 47.6997 49.0308 -9.47449 23.4153 -1.71158e-006 -2.72238e-009 -7.82258e-007 -3.02201e-006 2.53206e-007 2.74101e-007 -1.71158e-006 -2.72236e-009 -7.82258e-007 -1.71158e-006 -2.72238e-009 -7.82258e-007 0.0150031 -8.97022e-005 -1.59337e-006 -1.71154e-006 -2.82506e-009 -7.82256e-007 -1.71158e-006 -2.72238e-009 -7.82258e-007 0.0189872 -0.00118822 -6.11328e-005 -1.3514e-006 -3.21473e-006 -3.92941e-008 -1.71158e-006 -2.72238e-009 -7.82258e-007 0.0123352 -0.00325853 -0.000685407 -1.71156e-006 -2.82596e-009 -7.82211e-007 -1.71158e-006 -2.72238e-009 -7.82258e-007 -3.02201e-006 2.53206e-007 2.74101e-007 -1.71158e-006 -2.72236e-009 -7.82258e-007 -77.6838 -70.044 -79.0739 1.77427 51.6444 -0.345637 3.89538 37.8672 -10.5018 -6.29124e-007 -4.47431e-007 -1.45325e-006 78.0011 -69.744 79.9211 -1.77684 51.6377 0.361262 -3.09573 37.8798 9.71042 7.95139e-016 0 -0 
-35.7748 31.6487 7.19579 -7.01671e-015 7.01671e-015 180 0.156432 0.575969 -0.571631 0.318628 1.15035 -1.14492 0.318628 1.15035 -1.14492 11.0068 35.0038 -6.3671 -2.17996e-006 -0.790901 1.04179e-007 -20.9713 -13.0432 -0.0386411 -47.6729 3.10362 -68.554 -50.241 41.0859 -14.8261 -31.691 4.51664 -8.69955 -3.9907e-007 1.66769e-007 -7.29186e-007 -3.9907e-007 1.66769e-007 -7.29186e-007 -3.9907e-007 1.66769e-007 -7.29186e-007 -3.9907e-007 1.66769e-007 -7.29186e-007 -0.0145864 -8.75988e-005 4.7887e-007 -3.99084e-007 1.66861e-007 -7.29165e-007 -3.9907e-007 1.66769e-007 -7.29186e-007 -0.0187695 -0.00118387 5.79908e-005 -3.99094e-007 1.66887e-007 -7.29155e-007 -3.9907e-007 1.66769e-007 -7.29186e-007 -0.0122808 -0.00324828 0.000677597 -3.99101e-007 1.66846e-007 -7.29156e-007 -3.9907e-007 1.66769e-007 -7.29186e-007 -3.9907e-007 1.66769e-007 -7.29186e-007 -3.9907e-007 1.66769e-007 -7.29186e-007 -11.7186 -13.5507 -12.3859 51.2319 4.59644 83.3666 60.3573 4.7095 47.6997 49.0308 -9.47449 23.4153 -1.71158e-006 -2.72238e-009 -7.82258e-007 -3.02201e-006 2.53206e-007 2.74101e-007 -1.71158e-006 -2.72236e-009 -7.82258e-007 -1.71158e-006 -2.72238e-009 -7.82258e-007 0.0150031 -8.97022e-005 -1.59337e-006 -1.71154e-006 -2.82506e-009 -7.82256e-007 -1.71158e-006 -2.72238e-009 -7.82258e-007 0.0189872 -0.00118822 -6.11328e-005 -1.3514e-006 -3.21473e-006 -3.92941e-008 -1.71158e-006 -2.72238e-009 -7.82258e-007 0.0123352 -0.00325853 -0.000685407 -1.71156e-006 -2.82596e-009 -7.82211e-007 -1.71158e-006 -2.72238e-009 -7.82258e-007 -3.02201e-006 2.53206e-007 2.74101e-007 -1.71158e-006 -2.72236e-009 -7.82258e-007 -77.6838 -70.044 -79.0739 1.77427 51.6444 -0.345634 3.89538 37.8672 -10.5018 -6.77578e-007 -2.39813e-007 -1.46139e-006 78.0011 -69.744 79.9211 -1.77684 51.6377 0.361262 -3.09573 37.8798 9.71042 7.95139e-016 0 -0 
-35.7748 31.6486 7.19584 -7.01671e-015 7.01671e-015 180 0.156432 0.575969 -0.571631 0.318628 1.15035 -1.14492 0.318628 1.15035 -1.14492 10.7312 32.8626 -5.87221 -3.23644e-006 0.137974 1.28158e-006 -20.9713 -13.0432 -0.0386411 -47.6729 3.10362 -68.554 -49.9918 41.0346 -15.2365 -31.691 4.51664 -8.69956 3.98172e-007 -1.6503e-007 7.30184e-007 5.41369e-007 2.62127e-006 5.93121e-007 3.98172e-007 -1.6503e-007 7.30184e-007 3.98172e-007 -1.6503e-007 7.30184e-007 -0.0145941 -8.77193e-005 1.10002e-006 3.98185e-007 -1.65123e-007 7.30162e-007 3.98172e-007 -1.6503e-007 7.30184e-007 -0.0187502 -0.00117756 5.93621e-005 1.17444e-007 4.33921e-007 8.6424e-007 3.98172e-007 -1.6503e-007 7.30184e-007 -0.0122731 -0.00325036 0.000679789 3.98203e-007 -1.65107e-007 7.30154e-007 3.98172e-007 -1.6503e-007 7.30184e-007 5.41369e-007 2.62127e-006 5.93121e-007 3.98172e-007 -1.6503e-007 7.30184e-007 -11.7186 -13.5507 -12.3859 51.2319 4.59644 83.3666 60.405 4.76383 47.488 49.0308 -9.47449 23.4152 3.18055e-015 -1.59028e-015 -1.59028e-015 3.18055e-015 1.59028e-015 1.59028e-015 3.18055e-015 -1.59028e-015 -3.97569e-016 3.18055e-015 -1.59028e-015 -1.59028e-015 0.014964 -8.94044e-005 -2.22174e-006 3.18055e-015 -4.77083e-015 -7.95139e-016 3.18055e-015 -1.59028e-015 -1.59028e-015 0.0189746 -0.00119219 -6.11775e-005 -3.18055e-015 -1.59028e-015 7.95139e-016 3.18055e-015 -1.59028e-015 -1.59028e-015 0.0122827 -0.00324882 -0.000677394 -3.18055e-015 -1.59028e-015 -0 3.18055e-015 -1.59028e-015 -1.59028e-015 3.18055e-015 1.59028e-015 1.59028e-015 3.18055e-015 -1.59028e-015 -3.97569e-016 -77.8438 -69.8141 -79.6472 1.77395 51.6403 -0.359644 3.3013 37.8836 -9.91217 -1.98785e-016 3.97569e-016 -0 78.1315 -69.5313 80.4339 -1.77656 51.6343 0.374044 -2.54873 37.8894 9.16718 3.66953e-007 -1.6039e-007 1.67296e-006 
-35.7748 31.6486 7.19588 -7.01671e-015 7.01671e-015 180 0.156432 0.575969 -0.571631 0.318628 1.15035 -1.14492 0.318628 1.15035 -1.14492 10.5248 31.1 -5.48234 2.21278e-006 0.898691 -1.10083e-006 -20.9713 -13.0432 -0.0386411 -47.6729 3.10362 -68.554 -49.7884 40.9917 -15.5718 -31.691 4.51663 -8.69955 1.98785e-015 3.18055e-015 7.95139e-016 -2.50192e-006 3.48652e-006 -1.55203e-006 -2.25686e-006 5.25737e-007 -6.67122e-007 1.98785e-015 3.18055e-015 7.95139e-016 -0.0145965 -9.29461e-005 1.73188e-006 -2.25685e-006 5.25822e-007 -6.67053e-007 1.98785e-015 3.18055e-015 7.95139e-016 -0.0187714 -0.00117509 5.8008e-005 -2.25685e-006 5.25849e-007 -6.67013e-007 1.98785e-015 3.18055e-015 7.95139e-016 -0.0123024 -0.00325735 0.000679606 -2.25686e-006 5.25826e-007 -6.67002e-007 1.98785e-015 3.18055e-015 7.95139e-016 -2.50192e-006 3.48652e-006 -1.55203e-006 -2.25686e-006 5.25737e-007 -6.67122e-007 -11.7186 -13.5507 -12.3859 51.2319 4.59644 83.3666 60.4441 4.80813 47.3148 49.0308 -9.47448 23.4153 6.54172e-007 -1.26117e-007 -5.29746e-007 6.54172e-007 -1.26117e-007 -5.29746e-007 6.54172e-007 -1.26117e-007 -5.29746e-007 6.54172e-007 -1.26117e-007 -5.29746e-007 0.0149874 -9.69528e-005 4.62298e-007 6.54163e-007 -1.26186e-007 -5.2973e-007 6.54172e-007 -1.26117e-007 -5.29746e-007 0.0190255 -0.00119656 -5.86992e-005 6.54155e-007 -1.26204e-007 -5.29731e-007 6.54172e-007 -1.26117e-007 -5.29746e-007 0.0122146 -0.00324008 -0.000673956 6.54151e-007 -1.26168e-007 -5.2975e-007 6.54172e-007 -1.26117e-007 -5.29746e-007 6.54172e-007 -1.26117e-007 -5.29746e-007 6.54172e-007 -1.26117e-007 -5.29746e-007 -77.9688 -69.6257 -80.1107 1.77369 51.637 -0.371024 2.81494 37.8933 -9.42955 -4.15214e-007 -9.70711e-008 -1.22803e-008 78.2335 -69.357 80.8491 -1.77633 51.6314 -0.762447 -2.992 37.8431 10.174 4.41391e-032 3.97569e-016 -6.36111e-015 
-35.7749 31.6485 7.19592 -7.01671e-015 7.01671e-015 180 0.156432 0.575969 -0.571631 0.318628 1.15035 -1.14492 0.318628 1.15035 -1.14492 10.335 29.3292 -5.10523 3.4144e-006 1.65993 1.83308e-006 -20.9713 -13.0432 -0.0386411 -47.6729 3.10363 -68.554 -49.5854 40.9478 -15.9067 -31.691 4.51663 -8.69956 -3.96695e-007 1.62181e-007 -7.31805e-007 -3.96695e-007 1.62181e-007 -7.31805e-007 -3.96695e-007 1.62181e-007 -7.31805e-007 -3.96695e-007 1.62181e-007 -7.31805e-007 -0.0145907 -9.30391e-005 -3.27051e-006 -3.96709e-007 1.62274e-007 -7.31784e-007 -3.96695e-007 1.62181e-007 -7.31805e-007 -0.0187446 -0.00117531 5.50171e-005 -3.96719e-007 1.623e-007 -7.31774e-007 -3.96695e-007 1.62181e-007 -7.31805e-007 -0.0123021 -0.00325698 0.000675242 -3.96726e-007 1.62259e-007 -7.31775e-007 -3.96695e-007 1.62181e-007 -7.31805e-007 -3.96695e-007 1.62181e-007 -7.31805e-007 -3.96695e-007 1.62181e-007 -7.31805e-007 -11.7186 -13.5507 -12.3859 51.2319 4.59644 83.3666 60.4834 4.85235 47.1415 49.0308 -9.47449 23.4153 4.41391e-032 -1.59028e-015 1.59028e-015 -3.18055e-015 -1.59028e-015 -0 -3.18055e-015 0 7.95139e-016 4.41391e-032 -1.59028e-015 1.59028e-015 0.0149974 -8.89159e-005 6.37264e-008 2.20695e-032 -1.59028e-015 7.95139e-016 4.41391e-032 -1.59028e-015 1.59028e-015 0.019047 -0.00119732 -5.93822e-005 3.18055e-015 0 -3.97569e-016 4.41391e-032 -1.59028e-015 1.59028e-015 0.0122783 -0.00325236 -0.000678327 3.18055e-015 3.18055e-015 -0 4.41391e-032 -1.59028e-015 1.59028e-015 -3.18055e-015 -1.59028e-015 -0 -3.18055e-015 0 7.95139e-016 -78.0885 -69.4369 -80.5691 1.77342 51.6337 -0.382299 2.32842 37.8997 -8.9468 4.15205e-007 9.71459e-008 1.21689e-008 78.331 -69.1824 81.26 -1.77614 51.6284 -0.756317 -2.54797 37.8538 9.73528 -1.98785e-016 7.95139e-016 3.18055e-015 
